<?xml version="1.0" encoding="UTF-8"?>
<svg xmlns="http://www.w3.org/2000/svg" width="28" height="20" fill="none">
  <rect width="28" height="20" rx="2" fill="#fff"></rect>
  <mask id="a" style="mask-type:alpha" maskUnits="userSpaceOnUse" x="0" y="0" width="28" height="20">
    <rect width="28" height="20" rx="2" fill="#fff"></rect>
  </mask>
  <g mask="url(#a)">
    <path fill-rule="evenodd" clip-rule="evenodd" d="M0 6.667h28V0H0v6.667z" fill="#24AAD5"></path>
    <path fill-rule="evenodd" clip-rule="evenodd" d="M0 20h28v-6.667H0V20z" fill="#21BF75"></path>
    <path fill-rule="evenodd" clip-rule="evenodd" d="M0 13.333h28V6.667H0v6.666z" fill="#ED1845"></path>
    <g filter="url(#filter0_d_404_611)">
      <path fill-rule="evenodd" clip-rule="evenodd" d="M14 12a1.99 1.99 0 001.111-.337 1.667 1.667 0 110-3.326A2 2 0 1014 12zm2-2a.667.667 0 11-1.333 0A.667.667 0 0116 10z" fill="#fff"></path>
    </g>
  </g>
  <defs>
    <filter id="filter0_d_404_611" x="12" y="8" width="4" height="5" color-interpolation-filters="sRGB">
      <feFlood flood-opacity="0" result="BackgroundImageFix"></feFlood>
      <feColorMatrix in="SourceAlpha" values="0 0 0 0 0 0 0 0 0 0 0 0 0 0 0 0 0 0 127 0" result="hardAlpha"></feColorMatrix>
      <feOffset dy="1"></feOffset>
      <feColorMatrix values="0 0 0 0 0 0 0 0 0 0 0 0 0 0 0 0 0 0 0.06 0"></feColorMatrix>
      <feBlend in2="BackgroundImageFix" result="effect1_dropShadow_404_611"></feBlend>
      <feBlend in="SourceGraphic" in2="effect1_dropShadow_404_611" result="shape"></feBlend>
    </filter>
  </defs>
</svg>
