<?xml version="1.0" encoding="UTF-8"?>
<svg xmlns="http://www.w3.org/2000/svg" width="28" height="20" fill="none">
  <rect width="28" height="20" rx="2" fill="#fff"></rect>
  <mask id="a" style="mask-type:alpha" maskUnits="userSpaceOnUse" x="0" y="0" width="28" height="20">
    <rect width="28" height="20" rx="2" fill="#fff"></rect>
  </mask>
  <g mask="url(#a)">
    <path fill="#043CAE" d="M0 0h28v20H0z"></path>
    <path fill-rule="evenodd" clip-rule="evenodd" d="M13.057 4.276L14 4l.943.276-.276-.943.276-.943-.943.277-.943-.276.276.942-.276.943zm0 13.334l.943-.277.943.277-.276-.943.276-.943L14 16l-.943-.276.276.943-.276.942zm7.61-6.943l-.943.276L20 10l-.276-.943.943.276.943-.276-.277.943.277.943-.943-.276zm-14.276.276l.942-.276.943.276L8 10l.276-.943-.943.276-.942-.276.276.943-.276.943zm13.383-3.61l-.943.276.276-.942-.276-.943.943.276.942-.276-.276.943.276.942-.942-.276zm-12.49 6.943L8.227 14l.942.276-.276-.943.276-.943-.942.277-.943-.277.276.943-.276.943zm10.05-9.383l-.943.276.276-.943-.276-.942.942.276.943-.276-.276.942.276.943-.943-.276zm-7.61 11.823l.943-.276.943.276-.277-.943.277-.942-.943.276-.943-.276.276.943-.276.942zM19.774 14l-.943.276.276-.943-.276-.943.943.277.942-.277-.276.943.276.943-.942-.276zM7.284 7.61l.943-.277.942.276-.276-.942.276-.943L8.227 6l-.943-.276.276.943-.276.942zm10.05 8.83l-.943.276.276-.943-.276-.942.942.276.943-.276-.276.943.276.942-.943-.276zM9.723 5.17l.943-.277.943.276-.277-.943.277-.942-.943.276-.943-.276.276.942-.276.943z" fill="#FFD429"></path>
  </g>
</svg>
