<svg xmlns="http://www.w3.org/2000/svg" width="64" height="48" viewBox="0 0 64 48" fill="none"><path d="M62.2097 11.4441H1.63374V47H62.2097V11.4441Z" stroke="black" stroke-width="2" stroke-miterlimit="10" stroke-linecap="round" stroke-linejoin="round"></path><path d="M8.94455 40.7336H12.0778" stroke="black" stroke-width="2" stroke-miterlimit="10" stroke-linecap="round" stroke-linejoin="round"></path><path d="M51.7654 17.7564H54.8987" stroke="black" stroke-width="2" stroke-miterlimit="10" stroke-linecap="round" stroke-linejoin="round"></path><path d="M3.7226 6.22205H60.1209" stroke="black" stroke-width="2" stroke-miterlimit="10" stroke-linecap="round" stroke-linejoin="round"></path><path d="M5.81136 1H58.032" stroke="black" stroke-width="2" stroke-miterlimit="10" stroke-linecap="round" stroke-linejoin="round"></path><path d="M33.4062 24.3401C38.4681 25.0609 42.3603 29.4122 42.3603 34.6733C42.3603 35.4201 42.2813 36.1484 42.1322 36.8508H39.2988C39.5023 36.1604 39.6121 35.4297 39.6121 34.6733C39.6121 30.9339 36.943 27.8184 33.4062 27.1266V34.3861L30.5911 35.8007V27.0978C26.978 27.7281 24.2312 30.8797 24.2312 34.6733C24.2312 35.4297 24.3409 36.1604 24.5444 36.8508H21.7111C21.562 36.1484 21.4829 35.4201 21.4829 34.6733C21.4829 29.3588 25.4542 24.972 30.5911 24.3186V23.008L33.4062 21.5933V24.3401Z" fill="black"></path></svg>