<?xml version="1.0" encoding="UTF-8"?>
<svg xmlns="http://www.w3.org/2000/svg" width="46" height="46" fill="none">
  <path d="M22.763 46c12.571 0 22.763-10.191 22.763-22.763C45.526 10.666 35.334.474 22.763.474 10.19.474 0 10.665 0 23.237 0 35.81 10.191 46 22.763 46z" fill="url(#paint0_linear_438_522)"></path>
  <path d="M22.763 46c12.571 0 22.763-10.191 22.763-22.763C45.526 10.666 35.334.474 22.763.474 10.19.474 0 10.665 0 23.237 0 35.81 10.191 46 22.763 46z" fill="#000" fill-opacity=".2"></path>
  <path d="M29.831 14.627a1.557 1.557 0 100 3.114 1.557 1.557 0 000-3.114zm-6.959 2.04a6.586 6.586 0 10-.031 13.172 6.586 6.586 0 00.03-13.172zm0 10.79a4.22 4.22 0 114.204-4.22 4.235 4.235 0 01-4.204 4.188v.032z" fill="#fff"></path>
  <path d="M28.088 36.565h-10.65a8.034 8.034 0 01-8.018-8.019V17.881a8.034 8.034 0 018.018-8.018h10.65a8.034 8.034 0 018.018 8.018v10.665a8.034 8.034 0 01-8.018 8.019zM17.438 12.37a5.527 5.527 0 00-5.512 5.511v10.665a5.511 5.511 0 005.512 5.496h10.65a5.512 5.512 0 005.511-5.496V17.881a5.527 5.527 0 00-5.511-5.511h-10.65z" fill="#fff"></path>
  <defs>
    <linearGradient id="paint0_linear_438_522" x1="38.862" y1="7.138" x2="6.664" y2="39.336" gradientUnits="userSpaceOnUse">
      <stop stop-color="#FBE18A"></stop>
      <stop offset=".21" stop-color="#FCBB45"></stop>
      <stop offset=".38" stop-color="#F75274"></stop>
      <stop offset=".52" stop-color="#D53692"></stop>
      <stop offset=".74" stop-color="#8F39CE"></stop>
      <stop offset="1" stop-color="#5B4FE9"></stop>
    </linearGradient>
  </defs>
</svg>
