<svg xmlns="http://www.w3.org/2000/svg" width="85" height="55" fill="none"><path d="M0 11.12C0 4.98 4.935 0 11.023 0h62.954C80.065 0 85 4.979 85 11.12v24.573c0 5.616-4.15 10.35-9.675 11.037l-62.954 7.828C5.798 55.375 0 50.202 0 43.52v-32.4z" fill="#6F0BB5"></path><path d="M60.265 31.18c1.33 0 2.415-.447 3.257-1.34.864-.917 1.296-2.135 1.296-3.655s-.432-2.727-1.296-3.621c-.842-.917-1.928-1.375-3.257-1.375-1.33 0-2.426.458-3.29 1.375-.843.894-1.264 2.1-1.264 3.62s.422 2.739 1.263 3.655c.865.894 1.961 1.341 3.29 1.341zm.774-14.158c1.661 0 3.168.39 4.52 1.173 1.373.76 2.448 1.844 3.224 3.253.775 1.385 1.163 3.006 1.163 4.861s-.388 3.487-1.163 4.895a8.384 8.384 0 01-3.224 3.253c-1.352.76-2.858 1.14-4.52 1.14-2.46 0-4.332-.783-5.617-2.347v2.078H50.47V10.45h5.184v8.751c1.308-1.453 3.102-2.18 5.385-2.18zm-12.61 17.31c-.51.38-1.142.67-1.895.872a9.767 9.767 0 01-2.327.268c-2.127 0-3.778-.547-4.952-1.643-1.152-1.095-1.728-2.704-1.728-4.828v-7.41h-2.759v-4.023h2.759v-4.393h5.185v4.393h4.453v4.023h-4.453v7.343c0 .76.188 1.352.565 1.777.398.402.952.604 1.661.604.82 0 1.518-.224 2.094-.671l1.396 3.688zm-24.981-2.38c.886 0 1.673-.202 2.36-.604.686-.425 1.174-1.04 1.462-1.844V27.66h-3.556c-2.127 0-3.19.704-3.19 2.112 0 .67.254 1.207.764 1.61.531.38 1.251.57 2.16.57zm.399-15.055c2.77 0 4.896.67 6.38 2.012 1.485 1.319 2.228 3.32 2.228 6.002v10.293h-4.853v-2.246c-.975 1.676-2.791 2.514-5.45 2.514-1.374 0-2.57-.235-3.59-.704-.997-.47-1.761-1.118-2.293-1.945-.532-.827-.798-1.765-.798-2.816 0-1.677.62-2.995 1.862-3.957 1.263-.96 3.201-1.441 5.816-1.441h4.121c0-1.14-.343-2.012-1.03-2.616-.687-.625-1.717-.938-3.091-.938-.953 0-1.895.156-2.825.47-.909.29-1.684.692-2.327 1.206l-1.86-3.655c.974-.692 2.137-1.229 3.489-1.609a15.75 15.75 0 014.22-.57z" fill="#fff"></path></svg>